<?xml version="1.0" encoding="utf-8"?>
<svg version="1.1" xmlns:xlink="http://www.w3.org/1999/xlink" width="13px" height="13px" viewBox="200 198  13 13" xmlns="http://www.w3.org/2000/svg">
  <path d="M 206.5 198  C 210.14 198  213 200.86  213 204.5  C 213 208.14  210.14 211  206.5 211  C 202.86 211  200 208.14  200 204.5  C 200 200.86  202.86 198  206.5 198  Z " fill-rule="nonzero" fill="#ffffff" stroke="none" />
  <path d="M 206.5 198.5  C 209.86 198.5  212.5 201.14  212.5 204.5  C 212.5 207.86  209.86 210.5  206.5 210.5  C 203.14 210.5  200.5 207.86  200.5 204.5  C 200.5 201.14  203.14 198.5  206.5 198.5  Z " stroke-width="1" stroke="#797979" fill="none" />
  <path d="M 206.5 207.75  C 204.68 207.75  203.25 206.32  203.25 204.5  C 203.25 202.68  204.68 201.25  206.5 201.25  C 208.32 201.25  209.75 202.68  209.75 204.5  C 209.75 206.32  208.32 207.75  206.5 207.75  " fill-rule="nonzero" fill="#797979" stroke="none" />
</svg>