<?xml version="1.0" encoding="utf-8"?>
<svg version="1.1" xmlns:xlink="http://www.w3.org/1999/xlink" width="13px" height="13px" viewBox="200 145  13 13" xmlns="http://www.w3.org/2000/svg">
  <path d="M 206.5 145  C 210.14 145  213 147.86  213 151.5  C 213 155.14  210.14 158  206.5 158  C 202.86 158  200 155.14  200 151.5  C 200 147.86  202.86 145  206.5 145  Z " fill-rule="nonzero" fill="#ffffff" stroke="none" />
  <path d="M 206.5 145.5  C 209.86 145.5  212.5 148.14  212.5 151.5  C 212.5 154.86  209.86 157.5  206.5 157.5  C 203.14 157.5  200.5 154.86  200.5 151.5  C 200.5 148.14  203.14 145.5  206.5 145.5  Z " stroke-width="1" stroke="#797979" fill="none" />
  <path d="M 206.5 154.75  C 204.68 154.75  203.25 153.32  203.25 151.5  C 203.25 149.68  204.68 148.25  206.5 148.25  C 208.32 148.25  209.75 149.68  209.75 151.5  C 209.75 153.32  208.32 154.75  206.5 154.75  " fill-rule="nonzero" fill="#797979" stroke="none" />
</svg>