<?xml version="1.0" encoding="utf-8"?>
<svg version="1.1" xmlns:xlink="http://www.w3.org/1999/xlink" width="13px" height="13px" viewBox="124 198  13 13" xmlns="http://www.w3.org/2000/svg">
  <path d="M 130.5 198  C 134.14 198  137 200.86  137 204.5  C 137 208.14  134.14 211  130.5 211  C 126.86 211  124 208.14  124 204.5  C 124 200.86  126.86 198  130.5 198  Z " fill-rule="nonzero" fill="#ffffff" stroke="none" />
  <path d="M 130.5 198.5  C 133.86 198.5  136.5 201.14  136.5 204.5  C 136.5 207.86  133.86 210.5  130.5 210.5  C 127.14 210.5  124.5 207.86  124.5 204.5  C 124.5 201.14  127.14 198.5  130.5 198.5  Z " stroke-width="1" stroke="#797979" fill="none" />
  <path d="M 130.5 207.75  C 128.68 207.75  127.25 206.32  127.25 204.5  C 127.25 202.68  128.68 201.25  130.5 201.25  C 132.32 201.25  133.75 202.68  133.75 204.5  C 133.75 206.32  132.32 207.75  130.5 207.75  " fill-rule="nonzero" fill="#797979" stroke="none" />
</svg>