<?xml version="1.0" encoding="utf-8"?>
<svg version="1.1" xmlns:xlink="http://www.w3.org/1999/xlink" width="13px" height="13px" viewBox="124 145  13 13" xmlns="http://www.w3.org/2000/svg">
  <path d="M 130.5 145  C 134.14 145  137 147.86  137 151.5  C 137 155.14  134.14 158  130.5 158  C 126.86 158  124 155.14  124 151.5  C 124 147.86  126.86 145  130.5 145  Z " fill-rule="nonzero" fill="#f0f0f0" stroke="none" />
  <path d="M 130.5 145.5  C 133.86 145.5  136.5 148.14  136.5 151.5  C 136.5 154.86  133.86 157.5  130.5 157.5  C 127.14 157.5  124.5 154.86  124.5 151.5  C 124.5 148.14  127.14 145.5  130.5 145.5  Z " stroke-width="1" stroke="#797979" fill="none" />
  <path d="M 130.5 154.75  C 128.68 154.75  127.25 153.32  127.25 151.5  C 127.25 149.68  128.68 148.25  130.5 148.25  C 132.32 148.25  133.75 149.68  133.75 151.5  C 133.75 153.32  132.32 154.75  130.5 154.75  " fill-rule="nonzero" fill="#797979" stroke="none" />
</svg>