<?xml version="1.0" encoding="utf-8"?>
<svg version="1.1" xmlns:xlink="http://www.w3.org/1999/xlink" width="40px" height="40px" xmlns="http://www.w3.org/2000/svg">
  <g transform="matrix(1 0 0 1 -10 -20 )">
    <path d="M 19.3568 10.1308  L 19.361600000000003 19.4984  L 9.7972 19.4984  C 4.5232 19.4984  0.23279999999999998 15.207999999999998  0.23279999999999998 9.934  C 0.23279999999999998 4.66  4.5232 0.3696  9.7972 0.3696  C 15.071200000000001 0.3696  19.3612 4.66  19.3612 9.934  C 19.3612 9.98  19.360000000000003 10.025599999999999  19.3584 10.071200000000001  L 19.3568 10.1308  Z M 17.7616 9.934000000000001  C 17.761200000000002 5.542400000000001  14.1888 1.9696000000000002  9.7972 1.9696  C 5.405600000000001 1.9696  1.8328 5.5424  1.8328 9.934000000000001  C 1.8328 14.325600000000001  5.4056 17.898400000000002  9.7972 17.898400000000002  L 17.761200000000002 17.898400000000002  L 17.7572 10.116  L 17.7616 9.934000000000001  Z M 39.877199999999995 9.934000000000001  C 39.877199999999995 15.208000000000004  35.5868 19.4984  30.312800000000003 19.4984  L 20.7484 19.4984  L 20.7532 10.1152  L 20.7516 10.0716  C 20.749862978302886 10.02588660145054  20.7489295008263 9.980146205097846  20.7488 9.9344  C 20.7488 4.660400000000001  25.0392 0.37000000000000144  30.312799999999996 0.37000000000000144  C 35.5864 0.37000000000000144  39.877199999999995 4.660000000000001  39.877199999999995 9.934000000000001  Z M 22.353200000000008 10.1  L 22.349200000000003 17.898400000000002  L 30.312800000000003 17.898400000000002  C 34.7044 17.898400000000002  38.2772 14.325600000000001  38.2772 9.934000000000001  C 38.2772 5.542400000000001  34.7048 1.9696  30.312800000000003 1.9696  C 25.921200000000006 1.9696  22.348800000000004 5.5424  22.348800000000004 9.934000000000001  L 22.353200000000008 10.1  Z M 19.2516 30.435599999999997  C 19.2512 35.7092  14.9608 40  9.6868 40  C 4.4132 40  0.12279999999999999 35.7092  0.12279999999999999 30.435599999999997  C 0.12279999999999999 25.161999999999995  4.4132 20.8716  9.687199999999999 20.8716  L 19.252 20.8716  L 19.2468 30.2548  L 19.2484 30.293999999999997  C 19.25 30.340799999999998  19.2516 30.387999999999998  19.2516 30.435599999999997  Z M 17.6508 22.471600000000002  L 9.6868 22.471600000000002  C 5.2951999999999995 22.471600000000002  1.7223999999999995 26.0444  1.7223999999999995 30.4356  C 1.7227999999999999 34.8272  5.2951999999999995 38.4  9.6868 38.4  C 14.0784 38.4  17.6512 34.8272  17.6512 30.435599999999997  L 17.6468 30.272399999999998  L 17.6508 22.471600000000002  Z M 39.767199999999995 30.4356  C 39.767199999999995 35.7092  35.476800000000004 40  30.2032 40  C 24.929199999999998 40  20.638800000000003 35.7092  20.638800000000003 30.4356  C 20.638800000000003 30.385600000000004  20.640400000000003 30.3364  20.642 30.287200000000002  L 20.644 30.233600000000003  L 20.638399999999997 20.871600000000004  L 30.2032 20.871600000000004  C 35.477199999999996 20.871600000000004  39.767199999999995 25.162000000000006  39.767199999999995 30.4356  Z M 30.2032 22.471600000000002  L 22.239199999999997 22.471600000000002  L 22.2436 30.254000000000005  L 22.238799999999998 30.4356  C 22.238799999999998 34.8272  25.8112 38.4  30.2032 38.4  C 34.5948 38.4  38.1672 34.8272  38.1672 30.435599999999997  C 38.1672 26.044  34.5944 22.471600000000002  30.2032 22.471600000000002  Z " fill-rule="nonzero" fill="#ffffff" stroke="none" transform="matrix(1 0 0 1 10 20 )" />
  </g>
</svg>