<?xml version="1.0" encoding="utf-8"?>
<svg version="1.1" xmlns:xlink="http://www.w3.org/1999/xlink" width="30px" height="30px" xmlns="http://www.w3.org/2000/svg">
  <g transform="matrix(1 0 0 1 -10 -171 )">
    <path d="M 20.6082 28.781400000000005  C 18.812648885549102 29.51909296048175  16.89048280427916 29.899592782750847  14.949299999999997 29.9016  C 6.696465489178392 29.900490132709134  0.006809783615145513 23.209934720591864  0.006809783615145513 14.957100135141026  C 0.006809783615145513 6.703480691294733  6.697690339768852 0.012600135141026522  14.951309783615145 0.012600135141026522  C 23.204929227461434 0.012600135141026522  29.89580978361515 6.703480691294733  29.89580978361515 14.957100135141026  C 29.89580978361515 15.4660953810385  29.86980596446596 15.974758286135652  29.817899999999998 16.4811  C 29.758481559879012 17.055529499384402  29.27444441624091 17.492080922905213  28.696950000000005 17.492080922905213  C 28.07456323716671 17.492080922905213  27.570019077094788 16.98753676283329  27.570019077094788 16.36515  C 27.570019077094788 16.326422907305325  27.57201536677477 16.28772155768712  27.576 16.249200000000002  C 27.620670695455168 15.81632419128237  27.643050375687547 15.381437505820386  27.643050375687547 14.94626290085659  C 27.643050375687547 7.936112571254329  21.96020070528981 2.253262900856591  14.95005037568755 2.253262900856591  C 7.939900046085288 2.253262900856591  2.25705037568755 7.936112571254329  2.25705037568755 14.94626290085659  C 2.25705037568755 21.95641323045885  7.939900046085288 27.63926290085659  14.95005037568755 27.63926290085659  C 16.597612630033773 27.63926290085659  18.229416857751485 27.31850868964781  19.7544 26.6949  C 19.88989706934649 26.639454326475903  20.034897546079215 26.610934770995357  20.1813 26.610934770995357  C 20.803843780756292 26.610934770995357  21.30851522900465 27.115606219243713  21.30851522900465 27.738150000000005  C 21.30851522900465 28.195824846364207  21.031783066643868 28.60806895648189  20.6082 28.781400000000005  Z " fill-rule="nonzero" fill="#000000" stroke="none" transform="matrix(1 0 0 1 10 171 )" />
  </g>
</svg>