<?xml version="1.0" encoding="utf-8"?>
<svg version="1.1" xmlns:xlink="http://www.w3.org/1999/xlink" width="4px" height="4px" xmlns="http://www.w3.org/2000/svg">
  <g transform="matrix(1 0 0 1 -26 -181 )">
    <path d="M 3.8911999999999978 2.183300000000001  C 3.934106077104861 2.0618023737549738  3.914232511261279 1.9269540541044705  3.838099999999997 1.8230000000000004  C 3.378617460445138 1.1833114788851944  2.817971562185548 0.622766908277562  2.1782000000000004 0.1634000000000011  C 2.0738880551486147 0.08831846747263761  1.9394719122446737 0.06894014020398487  1.818200000000001 0.11150000000000126  C 1.2700777360632571 0.2908971612481963  0.840370829214379 0.7209383836366339  0.6614000000000004 1.2692000000000032  C 0.6182578962284282 1.3904145083437598  0.6376761479148918 1.5251075836255836  0.7133000000000003 1.6292000000000009  C 1.172761583057504 2.268619477389846  1.733180522610155 2.8290384169424936  2.3725999999999985 3.2885000000000026  C 2.476945167931685 3.3634451379482346  2.6111969033628704 3.3830235160319493  2.732599999999998 3.341000000000001  C 3.2815149918756354 3.1622600643346725  3.7120335557532798 2.732075927099089  3.8911999999999978 2.183300000000001  Z M 3.501199999999997 2.0551999999999992  C 3.3628815759815183 2.4795686560904002  3.0325720082754266 2.8138806285213036  2.609900000000003 2.9573  C 2.00998623002069 2.5253977100469847  1.482164416275424 2.00132218579118  1.0459999999999994 1.4044999999999987  C 1.1831317910447403 0.9772078789633767  1.514341796822393 0.6399900329734312  1.9390999999999998 0.49519999999999875  C 2.540642744901593 0.9274124319220256  3.068178735120462 1.4542392322174198  3.501199999999997 2.0551999999999992  Z " fill-rule="nonzero" fill="#000000" stroke="none" transform="matrix(1 0 0 1 26 181 )" />
  </g>
</svg>