<?xml version="1.0" encoding="utf-8"?>
<svg version="1.1" xmlns:xlink="http://www.w3.org/1999/xlink" width="14px" height="14px" xmlns="http://www.w3.org/2000/svg">
  <g transform="matrix(1 0 0 1 -18 -179 )">
    <path d="M 9.45835 0.4500998653352876  C 9.457999999991092 0.4500998653352876  9.457649999997393 0.4500999102235248  9.4573 0.45010000000000083  C 7.196473843248628 0.45009999392947186  5.363665676839863 2.2827738493191507  5.3635 4.543599999999998  C 5.366322092253945 5.052769061570492  5.465360509384558 5.556816586370889  5.6554 6.029199999999998  L 0.6820000000000004 11.002300000000005  C 0.5346722544428246 11.126913185840952  0.4496377319629037 11.310039144575132  0.44950000000000045 11.503  L 0.44950000000000045 12.731200000000001  C 0.45934650304791447 13.179213592866358  0.820186407133642 13.540053496952087  1.2682000000000002 13.549900000000001  L 2.4963999999999995 13.549900000000001  C 2.6896564218654575 13.55065195601399  2.8735324598356176 13.466663258885106  2.9994999999999994 13.3201  L 3.586899999999998 12.732400000000002  L 4.546900000000001 12.732400000000005  C 4.999055524686474 12.732400000000005  5.365600000000001 12.365855524686474  5.365599999999999 11.913699999999999  L 5.365599999999999 11.093499999999999  L 6.1843 11.093500000000002  C 6.636455524686474 11.093500000000002  7.003 10.726955524686474  7.003 10.274799999999999  L 7.003 9.314799999999998  L 7.9729 8.344299999999997  C 8.445471521478712 8.53487022720353  8.949858476541614 8.634220715223993  9.459400000000002 8.637099999999997  C 11.719767583825867 8.636520206189562  13.551850134664708 6.803967658185641  13.551850134664708 4.543599999999998  C 13.551850134664708 2.2828223021943828  11.719127697805618 0.4500998653352876  9.45835 0.4500998653352876  Z M 12.730899945135455 4.54330049462628  C 12.730899945135455 6.351551039034371  11.265550271339702 7.817706243454614  9.457299999999996 7.818700000000001  C 8.874255766267641 7.815740150198653  8.302797180764319 7.655619817481457  7.803100000000002 7.355200000000002  L 7.662400000000003 7.495600000000003  L 7.201600000000003 7.956100000000003  L 6.4216 8.736100000000004  C 6.268010672461445 8.889532199514171  6.181677533155918 9.097702981664625  6.181600000000001 9.314800000000005  L 6.181600000000001 10.274800000000006  L 5.363200000000003 10.274800000000006  C 4.911044475313531 10.274800000000006  4.544500000000005 10.641344475313534  4.544500000000003 11.093500000000006  L 4.544500000000003 11.912200000000006  L 3.5845000000000056 11.912200000000006  C 3.367409551541451 11.912310487447087  3.1592508803897665 11.998638604047063  3.0058000000000025 12.152200000000008  L 2.4253000000000036 12.732700000000005  L 1.268500000000003 12.731200000000005  L 1.268500000000003 11.564500000000006  L 6.043600000000003 6.797800000000008  L 6.643599999999999 6.197800000000008  C 6.343122209589888 5.698237651608254  6.182995201395858 5.126858883858294  6.180100000000007 4.543900000000008  C 6.180099945135453 2.734347025030498  7.646546475539672 1.2679004946262786  9.455499945135454 1.2679004946262786  C 11.264453414731236 1.2679004946262786  12.730899945135455 2.734347025030498  12.730899945135455 4.54330049462628  Z " fill-rule="nonzero" fill="#000000" stroke="none" transform="matrix(1 0 0 1 18 179 )" />
  </g>
</svg>