<?xml version="1.0" encoding="utf-8"?>
<svg version="1.1" xmlns:xlink="http://www.w3.org/1999/xlink" width="30px" height="30px" xmlns="http://www.w3.org/2000/svg">
  <g transform="matrix(1 0 0 1 -10 -131 )">
    <path d="M 29.90305057617187 24.5211852006629  C 29.902113837890624 24.66356508333636  29.789708671874997 24.800324712109056  29.650138945312502 24.826552563645944  L 28.156087060546874 25.10756546376214  C 28.0633528125 25.417616371662486  27.941580556640623 25.715490033480965  27.79077029296875 25.994629515630244  L 28.64785962890625 27.251693879637013  C 28.727479951171876 27.368782590460167  28.7115558984375 27.545820705521656  28.61132794921875 27.646985363625987  L 27.544415654296877 28.718581202423255  C 27.444187734375 28.819745831230712  27.268086298828123 28.835669913246413  27.150997587890625 28.755112882075082  L 25.892059804687502 27.890529875106903  C 25.613857031250003 28.04040342964804  25.317856787109378 28.160302267421574  25.0087426171875 28.252099806394433  L 24.729603134765625 29.74708839868448  C 24.70337525390625 29.88665812511068  24.56755236328125 30  24.425172509765627 30  L 22.916133251953127 30  C 22.7737533984375 30  22.637930478515624 29.886658125110685  22.61170262695313 29.747088398684486  L 22.329753017578128 28.238049142345655  C 22.033752773437502 28.14718831235626  21.749929746093752 28.028226183566186  21.48203077148438 27.883036173942344  L 20.239017070312507 28.737315382092465  C 20.121928359375005 28.817872413263792  19.945826953125007 28.80101165156151  19.845599003906255 28.700783702440642  L 18.77868670898438 27.629187863643374  C 18.678458789062507 27.528959943819373  18.66159799804688 27.351921799461014  18.74215502929688 27.2338963796544  L 19.592687402343756 25.985262425795643  C 19.444687265625006 25.708933070596743  19.323851718750007 25.4148062447121  19.232990888671882 25.10850220204248  L 17.73800229492188 24.82748930192628  C 17.59843256835938 24.801261421092516  17.48602740234376 24.6645018216167  17.48602740234376 24.522121968240114  L 17.48602740234375 23.005589010736724  C 17.48602740234375 22.863209157360146  17.59936927734375 22.726449528587448  17.738002294921873 22.70022167705056  L 19.23392759765625 22.41920877693436  C 19.32385171875 22.11946169714896  19.4409404296875 21.83189183414854  19.58613043945312 21.560246023866945  L 18.725294267578125 20.297561405959406  C 18.6456739453125 20.180472695136253  18.661597998046872 20.003434580074764  18.761825947265624 19.902269921970436  L 19.829674951171874 18.830674083173164  C 19.92990287109375 18.729509454365708  20.106004306640624 18.71358537235001  20.223093017578122 18.79414240352134  L 21.472663681640626 19.652168447605302  C 21.742436074218748 19.505105020014543  22.0300059375 19.38520621153788  22.32881630859375 19.29340864326815  L 22.61076591796875 17.78436938692932  C 22.636993798828126 17.64479966050312  22.772816689453126 17.530521076630347  22.915196542968747 17.530521076630347  L 24.424235800781247 17.530521076630347  C 24.566615654296875 17.530521076630347  24.70243857421875 17.643862951519665  24.72866642578125 17.78436938692932  L 25.00780590820312 19.27842127023591  C 25.319730234374997 19.370218809208765  25.61854060546875 19.49292777393268  25.899553505859373 19.644674746440742  L 27.165048251953124 18.77540819455526  C 27.282136962890622 18.695787872367386  27.458238369140624 18.71171192508621  27.558466318359372 18.811939874207084  L 28.62537861328125 19.883535713004353  C 28.725606533203123 19.98376363282835  28.742467324218747 20.160801777186713  28.66191029296875 20.278827196993323  L 27.79639057617187 21.549005486768543  C 27.943454003906247 21.82346142400052  28.063352812499996 22.11477812293478  28.154213671875 22.418272038654024  L 29.650138974609373 22.700221647753683  C 29.78970870117187 22.726449528587445  29.90305057617187 22.863209128063268  29.90305057617187 23.005588981439846  L 29.90305057617187 24.5211852006629  Z M 25.97730041015625 23.765260552963607  C 25.97730041015625 22.498829099122233  24.954413466796876 21.472195320827936  23.692665556640627 21.472195320827936  C 22.431854355468747 21.472195320827936  21.40896744140625 22.498829099122233  21.40896744140625 23.765260552963607  C 21.40896744140625 25.03262871578844  22.431854384765625 26.058325785099285  23.692665556640627 26.058325785099285  C 24.954413466796876 26.058325785099285  25.97730041015625 25.031692006804988  25.97730041015625 23.765260552963607  Z M 26.055983994140625 15.09132918448112  C 25.47241388671875 14.931151831121921  24.8654260546875 14.829987173017587  24.24064072265625 14.792518784382304  C 24.3193243359375 14.252037320066368  24.373653486328124 13.704062183882753  24.373653486328124 13.142036383650353  C 24.373653486328124 6.896056428812444  19.33228212890625 1.8331407696941973  13.113466757812498 1.8331407696941973  C 6.894651386718747 1.8331407696941973  1.85328005859375 6.896056458109319  1.85328005859375 13.142036383650353  C 1.85328005859375 19.388016309191386  6.894651416015625 24.450931997606514  13.113466787109376 24.450931997606514  C 13.6726824609375 24.450931997606514  14.2187841796875 24.39660284726894  14.756455517578125 24.31698252508107  C 14.794860615234377 24.945514692436017  14.895088535156251 25.555312680121766  15.055265888671878 26.142629622907588  C 14.420176757812502 26.23723728883082  13.775720507812503 26.30280697626679  13.114403496093752 26.30280697626679  C 5.87832140625 26.302806976266787  0.0126455859375 20.414650116782568  0.0126455859375 13.151403502781829  C 0.0126455859375 5.8881568887810944  5.87832140625 0  13.1134667578125 0  C 20.348612109375 0  26.2142879296875 5.888156859484221  26.2142879296875 13.151403502781829  C 26.2142879296875 13.811783804871302  26.149654951171875 14.45624005424195  26.055983994140625 15.09132918448112  Z M 9.48278015625 19.64467477573762  C 8.3877665625 19.64467477573762  7.5007025390625 18.677053721995062  7.5007025390625 17.483685627457334  L 7.5007025390625 12.440440856991758  C 7.5007025390625 11.24707276245403  8.387766591796876 10.27851497043114  9.48278015625 10.27851497043114  L 11.240047470703127 10.27851497043114  L 14.98688607421875 10.27851497043114  L 16.74883693359375 10.27851497043114  C 17.842913818359374 10.27851497043114  18.730914550781247 11.246136053470574  18.730914550781247 12.440440856991758  L 18.730914550781247 16.270646614970076  C 17.465419804687496 17.117432151252505  16.430355644531247 18.279888820039172  15.728760117187498 19.644674775737624  L 9.48278015625 19.64467477573762  Z M 11.225996777343749 13.954163658247884  C 11.225060097656248 14.615480669320819  11.7393137109375 15.12130387195185  12.2966559375 15.43229148883565  L 12.2966559375 17.76001498265623  L 13.901239570312502 17.76001498265623  L 13.901239570312502 15.43229148883565  C 14.458581826171876 15.12130387195185  14.97283541015625 14.615480669320819  14.97283541015625 13.954163658247884  C 14.97283541015625 12.964061559605407  14.13354357421875 12.161301374842477  13.09941609375 12.161301374842477  C 12.065288613281249 12.161301374842477  11.225996777343749 12.963124821325069  11.225996777343749 13.954163658247884  Z M 14.985949365234374 8.410715939052036  C 14.982202529296876 8.02479157419454  14.874480908203125 6.537296653772171  13.1134667578125 6.537296653772171  C 11.352452607421876 6.537296653772171  11.244731015625 8.018234611310318  11.240047441406249 8.410715968348908  L 11.240047441406249 10.278514999728012  L 9.3544509375 10.278514999728012  L 9.3544509375 8.592437628327698  C 9.3544509375 8.592437628327698  9.355387646484374 4.658257085294671  13.1059730859375 4.658257085294671  C 16.857495234375 4.658257085294671  16.857495234375 8.592437628327698  16.857495234375 8.592437628327698  L 16.857495234375 10.279451708711472  L 14.985949365234376 10.279451708711472  L 14.985949365234374 8.410715939052036  Z " fill-rule="nonzero" fill="#000000" stroke="none" transform="matrix(1 0 0 1 10 131 )" />
  </g>
</svg>