<?xml version="1.0" encoding="utf-8"?>
<svg version="1.1" xmlns:xlink="http://www.w3.org/1999/xlink" width="11px" height="11px" xmlns="http://www.w3.org/2000/svg">
  <g transform="matrix(1 0 0 1 -30 -188 )">
    <path d="M 3.3810999999999964 1.8240999999999976  L 3.380200000000002 1.8237999999999985  C 3.518420325031819 1.2269139420440744  4.065964903452834 0.8159706584476325  4.677700000000005 0.8500000000000013  C 4.999706980683303 0.8459330043938174  5.299655927128775 1.0131551131509227  5.465499999999999 1.2891999999999975  C 5.570443573493868 1.4637733987148138  5.633875243067821 1.6601241817163839  5.6508999999999965 1.8630999999999993  C 5.774389143142053 1.8220129584651943  5.9035592816806854 1.8005520890528182  6.0337 1.799499999999998  C 6.353168509667296 1.7977637123869845  6.651758937143275 1.9580132648031743  6.826899999999998 2.2251999999999974  C 6.97285735583711 2.450919063094222  7.048648371580185 2.7148304787946316  7.044699999999999 2.983599999999999  L 7.044699999999999 3.2688999999999986  C 7.044699999999999 4.211499999999997  7.0466000000000015 5.153999999999996  7.0504 6.096399999999996  C 7.050012017822013 6.2229239219384915  7.0609557281942195 6.349228395775518  7.083100000000002 6.473799999999997  C 7.162000000000002 6.401799999999999  7.233100000000004 6.328899999999997  7.312600000000003 6.247899999999998  L 7.434400000000004 6.123999999999995  C 7.5746243520925844 5.9784392149692245  7.728984777340088 5.847192655481436  7.895199999999999 5.7322  C 8.339681660563624 5.438357149304938  8.892539192167426 5.359408961661053  9.401500000000002 5.517099999999999  C 9.624073799100316 5.575062780313694  9.808339113097446 5.730860758375933  9.902500000000007 5.9407  C 9.976533728392663 6.1095904550487425  10.009533569147099 6.293608258632678  9.99880000000001 6.477699999999999  C 9.989517939281082 6.83893587551756  9.84523561049059 7.183586542212936  9.594400000000004 7.4437  L 9.578200000000006 7.4605  C 9.232200000000006 7.806900000000006  8.881000000000007 8.148100000000003  8.524600000000003 8.484100000000002  C 8.234200000000005 8.759300000000003  7.937200000000008 9.027500000000003  7.633600000000001 9.288699999999999  C 7.400178808188073 9.49689651725555  7.1492505473039465 9.684590856396873  6.883600000000005 9.849700000000002  C 6.155723647440681 10.335871201952013  5.300704320195614 10.596738704772697  4.425400000000007 10.599700000000006  C 4.424450013419101 10.599706387029393  4.423500008051576 10.599709580571147  4.422550000000005 10.599709580571147  C 4.188431203343399 10.599709580571147  3.9986404194288667 10.409918796656616  3.9986404194288667 10.175800000000006  C 3.9986404194288667 9.942793432663755  4.18669869873014 9.753466533872665  4.419700000000002 9.751900000000003  C 5.128772888741821 9.74992171482874  5.821309279322474 9.53755641731011  6.409600000000005 9.141700000000004  C 6.421400000000005 9.133700000000005  6.4336000000000055 9.126300000000004  6.446200000000005 9.119500000000006  C 6.6668689338109886 8.979964851083228  6.875404673808059 8.822107912192276  7.069600000000005 8.647600000000004  C 7.362000000000005 8.395600000000005  7.648300000000006 8.136800000000008  7.928500000000007 7.871200000000002  C 8.278100000000006 7.541600000000006  8.62260000000001 7.206800000000005  8.962000000000003 6.866800000000006  L 8.978200000000005 6.850000000000004  L 8.983600000000003 6.844900000000003  L 8.998899999999999 6.830200000000001  C 9.037717564646119 6.788862608229991  9.067364800759798 6.739791320869418  9.085899999999999 6.686200000000003  C 9.116196847768279 6.608738962773409  9.13372459150748 6.526875281031927  9.137799999999999 6.443800000000003  C 9.140087445778487 6.403564019803355  9.13695947402191 6.363203093912116  9.128500000000003 6.323800000000009  C 8.873429153330012 6.24616334952825  8.596972565541147 6.287246340462609  8.375499999999999 6.435700000000004  C 8.2570389705321 6.519278888519154  8.14719683649087 6.6144486057534095  8.047600000000003 6.719800000000003  C 8.017600000000002 6.749800000000004  7.9852000000000025 6.782200000000003  7.951600000000003 6.817300000000004  C 7.861600000000003 6.909100000000002  7.758400000000002 7.014400000000003  7.655500000000004 7.107700000000001  C 7.481770121776648 7.284228376779602  7.250674109351493 7.392860526266752  7.003900000000002 7.414000000000005  C 6.75707908013041 7.417164591998215  6.527368728782449 7.2882385133283165  6.401500000000006 7.075900000000003  C 6.312241596117958 6.923608967811397  6.253164636995675 6.755545204791101  6.227500000000006 6.58090000000001  C 6.201579892990455 6.422217226108423  6.188637040402121 6.261685721136818  6.1888000000000005 6.100900000000006  C 6.1854000000000005 5.157700000000009  6.183700000000005 4.214300000000009  6.183700000000002 3.2707000000000086  L 6.183699999999997 2.984800000000003  C 6.1872323094136945 2.884283708158918  6.16216068404492 2.7848294598081114  6.1114 2.698000000000004  C 6.101229879970617 2.681475725734721  6.087495083630781 2.667433433954443  6.071200000000001 2.6569000000000074  C 6.05979380411457 2.6507951224344026  6.046911816908612 2.6479901736072975  6.033999999999999 2.648800000000005  C 5.938120275718127 2.651914401437203  5.846079220275801 2.687209134523009  5.7727 2.749000000000006  C 5.7005272856437195 2.805822187237748  5.658848168901606 2.892949277023124  5.6599 2.984800000000007  L 5.6599 5.2006000000000085  C 5.6599 5.43835854851373  5.46715858480216 5.63109996371157  5.229400000000002 5.63109996371157  C 4.991641429369359 5.63109996371157  4.798900020041554 5.438358570630648  4.798900000000003 5.2006000000000085  L 4.798900000000007 2.0337999999999994  C 4.803541808636929 1.929746550434377  4.780783119904406 1.8262979652865354  4.732900000000004 1.7338000000000022  C 4.7262696726029 1.7213074334744254  4.716944672641954 1.7104453456078303  4.705600000000004 1.7020000000000017  L 4.701100000000007 1.699900000000003  C 4.694020013284696 1.698275590541101  4.68676029744271 1.69756978483424  4.679500000000004 1.6978000000000009  C 4.322200000000002 1.6978000000000009  4.221700000000002 1.9234000000000009  4.225300000000001 2.0197000000000003  L 4.225300000000001 2.0356000000000023  L 4.221700000000002 2.7757000000000005  L 4.221700000000002 2.8125999999999998  L 4.212100000000007 5.226100000000002  C 4.211191198863588 5.463214478319944  4.01871621991852 5.654953162009296  3.7816000000000045 5.654953162009296  C 3.543839668868337 5.654953162009296  3.35109683799071 5.4622103311316685  3.35109683799071 5.224450000000001  C 3.35109683799071 5.223899998484871  3.351097891995746 5.223349997475417  3.3511000000000024 5.222799999999999  L 3.3604000000000056 2.8359999999999985  C 3.349687223674987 2.782492884810768  3.3249421295842576 2.7327956247122387  3.2887000000000057 2.692  C 3.2444970908611843 2.6552731590597  3.1869832186204725 2.638638712078926  3.1300000000000026 2.646099999999997  C 3.0405958631550973 2.6446581534844285  2.9536366090464483 2.6753120888372948  2.8849000000000053 2.732499999999998  C 2.8159802472431323 2.7966414539872275  2.779709921768543 2.8884748312526694  2.7862000000000045 2.982399999999999  L 2.7862000000000045 5.8065999999999995  C 2.780040984704321 6.039851109659609  2.5891824101509577 6.2257365718201  2.3558500000000038 6.2257365718201  C 2.1225175898490534 6.2257365718201  1.9316590152956863 6.039851109659611  1.925500000000003 5.806599999999996  L 1.925500000000003 4.192  C 1.9135086099034702 4.172088253329608  1.8992097687905163 4.153660873585444  1.8828999999999996 4.137099999999997  C 1.8698058575958676 4.123065915450393  1.8532527900868487 4.112720248257258  1.834900000000001 4.107100000000003  C 1.795385202455236 4.100322530605233  1.7547535806470798 4.105114978305686  1.7179000000000035 4.1209000000000024  C 1.5858619881542746 4.154506423955699  1.4791606022562434 4.251538348117975  1.4331999999999994 4.379800000000003  C 1.3769303355476552 4.570297105161767  1.3735083048454655 4.7725080102910376  1.4233000000000011 4.9648  C 1.6204131108703024 6.089716226148301  1.8770738811043017 7.20338162832244  2.1921999999999997 8.301100000000002  C 2.351854002819735 8.730668878500925  2.646622361322663 9.09681328952706  3.0321999999999996 9.3445  C 3.152021460318917 9.421856048358517  3.2243988479519032 9.5547326069578  3.2243988479519032 9.69735497747029  C 3.2243988479519032 9.781287745678412  3.199251315480339 9.863295444101496  3.152200000000004 9.932800000000004  C 3.018171448920242 10.127932605758364  2.7526442984806114 10.179944453408513  2.5549000000000035 10.049800000000005  C 2.0148646887796637 9.701142269120531  1.6025225888209569 9.186688390514917  1.379800000000003 8.583700000000004  C 1.0495297991747314 7.448603186060243  0.7821235998451925 6.2961525734441395  0.5788000000000046 5.131600000000006  C 0.49664559621808024 4.786348154364951  0.5123323853353767 4.425032574563918  0.6241000000000057 4.088200000000008  C 0.7612576969323825 3.715905533577615  1.0654977678472903 3.429777636351215  1.4455000000000027 3.3157000000000036  C 1.5996413809189856 3.262885835752108  1.7635199640098307 3.2446543433832495  1.925500000000003 3.2623000000000038  L 1.9254999999999995 2.9833  C 1.9254439971342308 2.978626824483136  1.9254159949473966 2.9739533553572954  1.9254159949473966 2.9692798442861235  C 1.9254159949473966 2.3231066869840937  2.449242837645368 1.7992798442861222  3.0954159949473983 1.7992798442861222  C 3.1070459355713957 1.7992798442861222  3.118675229786316 1.7994532487970218  3.1302999999999988 1.799800000000001  C 3.2144944157535456 1.799659602330376  3.2984986132485195 1.8077987650063214  3.3810999999999964 1.8240999999999976  Z " fill-rule="nonzero" fill="#000000" stroke="none" transform="matrix(1 0 0 1 30 188 )" />
  </g>
</svg>