<?xml version="1.0" encoding="utf-8"?>
<svg version="1.1" xmlns:xlink="http://www.w3.org/1999/xlink" width="13px" height="13px" viewBox="196 245  13 13" xmlns="http://www.w3.org/2000/svg">
  <path d="M 202.5 245  C 206.14 245  209 247.86  209 251.5  C 209 255.14  206.14 258  202.5 258  C 198.86 258  196 255.14  196 251.5  C 196 247.86  198.86 245  202.5 245  Z " fill-rule="nonzero" fill="#f0f0f0" stroke="none" />
  <path d="M 202.5 245.5  C 205.86 245.5  208.5 248.14  208.5 251.5  C 208.5 254.86  205.86 257.5  202.5 257.5  C 199.14 257.5  196.5 254.86  196.5 251.5  C 196.5 248.14  199.14 245.5  202.5 245.5  Z " stroke-width="1" stroke="#797979" fill="none" />
  <path d="M 202.5 254.75  C 200.68 254.75  199.25 253.32  199.25 251.5  C 199.25 249.68  200.68 248.25  202.5 248.25  C 204.32 248.25  205.75 249.68  205.75 251.5  C 205.75 253.32  204.32 254.75  202.5 254.75  " fill-rule="nonzero" fill="#797979" stroke="none" />
</svg>