<?xml version="1.0" encoding="utf-8"?>
<svg version="1.1" xmlns:xlink="http://www.w3.org/1999/xlink" width="13px" height="13px" viewBox="120 245  13 13" xmlns="http://www.w3.org/2000/svg">
  <path d="M 126.5 245  C 130.14 245  133 247.86  133 251.5  C 133 255.14  130.14 258  126.5 258  C 122.86 258  120 255.14  120 251.5  C 120 247.86  122.86 245  126.5 245  Z " fill-rule="nonzero" fill="#f0f0f0" stroke="none" />
  <path d="M 126.5 245.5  C 129.86 245.5  132.5 248.14  132.5 251.5  C 132.5 254.86  129.86 257.5  126.5 257.5  C 123.14 257.5  120.5 254.86  120.5 251.5  C 120.5 248.14  123.14 245.5  126.5 245.5  Z " stroke-width="1" stroke="#797979" fill="none" />
  <path d="M 126.5 254.75  C 124.68 254.75  123.25 253.32  123.25 251.5  C 123.25 249.68  124.68 248.25  126.5 248.25  C 128.32 248.25  129.75 249.68  129.75 251.5  C 129.75 253.32  128.32 254.75  126.5 254.75  " fill-rule="nonzero" fill="#797979" stroke="none" />
</svg>