<?xml version="1.0" encoding="utf-8"?>
<svg version="1.1" xmlns:xlink="http://www.w3.org/1999/xlink" width="35px" height="35px" xmlns="http://www.w3.org/2000/svg">
  <g transform="matrix(1 0 0 1 -12 -8 )">
    <path d="M 34.72868468023256 17.509149079204562  C 34.71410105317104 27.162983573103315  26.9524220592717 34.98530017897035  17.373422873062015 34.999997739669105  C 17.37048105469062 34.99999924655635  17.367539235979073 35  17.364597417227696 35  C 7.774675588469732 35  0.0005079114137416694 27.16509714395199  0.0005079114137416694 17.50025467507095  C 0.0005079114137416694 7.8354122061899085  7.774675588469732 0.0005093501418936409  17.364597417227696 0.0005093501418936409  C 26.954519245985665 0.0005093501418936409  34.72868692304166 7.8354122061899085  34.72868692304166 17.50025467507095  C 34.72868692304166 17.503219476589848  34.7286861754386 17.506184278068606  34.72868468023256 17.509149079204562  Z M 32.96314430717054 17.509149079204555  C 32.95828025675828 8.83250963737623  25.982797967053944 1.7985511128472789  17.37342287306201 1.7887372965911343  C 17.370480307141598 1.7887356182923624  17.36753774081044 1.7887347791429267  17.364595174418806 1.7887347791429267  C 8.749754368913566 1.7887347791429267  1.766046041666872 8.82700287315864  1.766046041666872 17.509146561756353  C 1.766046041666872 26.191290250354065  8.749754368913566 33.22955834436978  17.364595174418806 33.22955834436978  C 25.979435979924048 33.22955834436978  32.963144307170744 26.191290250354065  32.963144307170744 17.509146561756353  Z " fill-rule="nonzero" fill="#ffffff" stroke="none" transform="matrix(1 0 0 1 12 8 )" />
  </g>
</svg>