<?xml version="1.0" encoding="utf-8"?>
<svg version="1.1" xmlns:xlink="http://www.w3.org/1999/xlink" width="24px" height="24px" xmlns="http://www.w3.org/2000/svg">
  <g transform="matrix(1 0 0 1 -16 -14 )">
    <path d="M 23.59443892105264 17.078450842105262  C 24.039324710526323 15.972591868421055  23.060575973684216 14.523535263157896  21.38272093421053 13.671896723684213  C 21.48440913157895 13.112611736842108  21.535253210526314 12.540615710526318  21.535253210526314 11.943197605263158  C 21.535253210526314 11.396623618421053  21.48440913157895 10.862760671052634  21.39543197368421 10.341608723684212  C 22.780933460526317 9.477259184210528  23.53088380263158 8.206156894736843  23.13684209210526 7.22740815789474  C 22.730089342105266 6.24865938157895  21.29374377631579 5.892750750000001  19.692154934210528 6.261370421052633  C 19.107447868421055 5.447864960526316  18.395630605263158 4.736047697368423  17.58212510526316 4.1513406315789485  C 18.179543171052636 2.3463753947368433  17.84905657894737 0.6303873157894744  16.768619644736845 0.18550148684210693  C 15.688182710526323 -0.25938434210526057  14.23912610526316 0.7193644342105281  13.38748760526316 2.4099304736842124  C 12.891757697368426 2.33366435526316  12.396027828947371 2.2955312763157916  11.887586881578951 2.2955312763157916  C 11.391856973684215 2.2955312763157916  10.896127105263162 2.33366435526316  10.41310823684211 2.4099304736842124  C 9.561469697368427 0.7193644342105281  8.112413092105268 -0.25938434210526173  7.031976157894741 0.19821252631579106  C 5.951539223684216 0.6430983157894756  5.621052631578951 2.359086394736843  6.205759697368425 4.1513406315789485  C 5.354121157894742 4.774180736842107  4.616881855263162 5.524131078947368  4.006752750000006 6.388480618421053  C 2.2653426315789527 5.854617671052634  0.6129096710526378 6.197815263157896  0.18073484210526808 7.252830197368422  C -0.26415094736841643 8.32055613157895  0.6891757500000051 9.744190657894737  2.341608750000005 10.595829197368422  C 2.2780536315789517 11.040714986842108  2.2399205526315846 11.498311815789474  2.2399205526315846 11.955908644736844  C 2.2399205526315846 12.540615710526318  2.290764631578953 13.125322736842108  2.3924528289473734 13.684607763157896  C 0.7018867894736893 14.536246302631579  -0.26415094736841643 15.985302907894738  0.18073484210526808 17.06573980263158  C 0.6383316710526368 18.17159877631579  2.417874868421058 18.489374368421057  4.248262184210533 17.853823223684213  C 4.8075471710526365 18.578351526315792  5.4685203947368475 19.226613671052636  6.205759697368428 19.760476657894735  C 5.621052631578955 21.552730894736843  5.951539223684218 23.268718973684212  7.031976157894743 23.713604763157896  C 8.112413092105268 24.158490552631573  9.561469697368429 23.17974181578947  10.413108236842112 21.501886776315793  C 10.896127105263165 21.578152894736846  11.3918570131579 21.61628597368421  11.887586881578956 21.616286013157897  C 12.396027789473692 21.616286013157897  12.904468697368427 21.578152934210525  13.387487605263168 21.501886776315793  C 14.23912614473685 23.192452815789473  15.688182750000006 24.171201592105266  16.76861964473685 23.726315802631582  C 17.849056539473693 23.281430013157895  18.179543171052636 21.552730894736843  17.582125105263167 19.760476657894735  C 18.31936444736843 19.226613710526316  18.96762659210527 18.59106256578947  19.52691161842106 17.866534263157895  C 21.35729889473685 18.50208540789474  23.136842092105272 18.184309815789472  23.59443892105264 17.078450842105262  Z M 17.632969223684206 11.943197605263162  C 17.632969223684206 15.12095332894737  15.065342605263154 17.688579947368424  11.887586881578947 17.688579947368424  C 8.709831157894737 17.688579947368424  6.142204539473684 15.12095332894737  6.142204578947368 11.943197605263162  C 6.142204618421051 8.765441881578951  8.70983119736842 6.1978152631578975  11.887586881578947 6.197815302631581  C 15.065342565789473 6.197815342105265  17.632969223684206 8.765441921052634  17.632969223684206 11.943197605263162  Z " fill-rule="nonzero" fill="#000000" stroke="none" transform="matrix(1 0 0 1 16 14 )" />
  </g>
</svg>