<?xml version="1.0" encoding="utf-8"?>
<svg version="1.1" xmlns:xlink="http://www.w3.org/1999/xlink" width="35px" height="35px" xmlns="http://www.w3.org/2000/svg">
  <g transform="matrix(1 0 0 1 -10 -8 )">
    <path d="M 34.989202304687495 17.4900467578125  C 34.989202304687495 7.8310355859375  27.159031171875 0.0008244531250001241  17.499979999999997 0.0008244531250001241  C 7.840928828124998 0.0008244531250001241  0.010757695312499926 7.830995585937499  0.010757695312499926 17.4900467578125  C 0.010757695312499926 27.1490979296875  7.840928828125 34.9792690625  17.499979999999997 34.9792690625  C 27.159031171874997 34.9792690625  34.989202304687495 27.1490579296875  34.989202304687495 17.4900467578125  Z M 14.5865553125 9.252551796874998  L 14.5865553125 8.6598336328125  C 14.5865553125 8.52252671875  14.697879843750002 8.4112421875  14.8351867578125 8.4112421875  L 20.0633220703125 8.4112421875  C 20.200668945312497 8.4112421875  20.311953515624996 8.52252671875  20.311953515624996 8.6598336328125  L 20.311953515624996 9.2525517578125  C 20.311953515624996 9.389858671875  20.200668984375 9.501143203124998  20.0633220703125 9.501143203124998  L 14.8351867578125 9.5011432421875  C 14.6978398828125 9.5011432421875  14.5865553125 9.3898587109375  14.5865553125 9.252551796874998  Z M 26 25.7119123046875  L 26.081721601562503 25.7119123046875  C 26.081721601562503 26.169641953125  25.7106931640625 26.540670390625003  25.253043437500004 26  L 9.605092734374999 26  C 9.147403046875 26.5406704296875  8.776374609374999 26.169641992187497  9 25.711912343749994  L 9 9.2525517578125  C 8.776374609374999 8.7948620703125  9.147443007812498 8.4238336328125  9.605092734374999 8.4238336328125  L 12.5152396484375 8.4238336328125  C 12.773544531249998 8.449975898437499  12.882510624999998 8.744975898437499  12.882510624999998 8.744975898437499  L 13.8457375390625 10.323905390624999  C 13.8457375390625 10.323905390624999  13.890627109375 10.361559843749998  13.908055273437498 10.371353203124999  C 13.931799179687498 10.3846641796875  13.996155546874997 10.3920591796875  13.996155546874997 10.3920591796875  L 20.827923593749997 10.3920591796875  C 20.827923593749997 10.3920591796875  20.912506249999993 10.3878220703125  20.941886328124994 10.371353203124999  C 20.976023164062497 10.352206171875  21.044256914062494 10.2582298828125  21.044256914062494 10.2582298828125  L 21.967470976562495 8.744975859375  C 21.967470976562495 8.744975859375  22.076437109374996 8.449975859374998  22.334741953124997 8.423833593749999  L 25.25316328125 8.423833593749999  C 25.710852968749997 8.423833593749999  26.081841445312495 8.79486203125  26 9.25255171875  L 26 25.7119123046875  Z " fill-rule="nonzero" fill="#ffffff" stroke="none" transform="matrix(1 0 0 1 10 8 )" />
  </g>
</svg>