<?xml version="1.0" encoding="utf-8"?>
<svg version="1.1" xmlns:xlink="http://www.w3.org/1999/xlink" width="310px" height="226px" xmlns="http://www.w3.org/2000/svg">
  <g transform="matrix(1 0 0 1 -35 -179 )">
    <path d="M 57 164  L 85 164  L 85 185  L 57 185  L 57 164  Z M 57 41  L 85 41  L 85 62  L 57 62  L 57 41  Z M 225 41  L 253 41  L 253 62  L 225 62  L 225 41  Z M 29 143  L 29 205  L 113 205  L 113 143  L 29 143  Z M 29 21  L 29 83  L 113 83  L 113 21  L 29 21  Z M 197 21  L 197 83  L 281 83  L 281 21  L 197 21  Z M 0 123  L 141 123  L 141 226  L 0 226  L 0 123  Z M 225 205  L 253 205  L 253 226  L 225 226  L 225 205  Z M 281 205  L 310 205  L 310 226  L 281 226  L 281 205  Z M 281 123  L 310 123  L 310 185  L 225 185  L 225 164  L 197 164  L 197 226  L 169 226  L 169 123  L 253 123  L 253 143  L 281 143  L 281 123  Z M 0 0  L 141 0  L 141 103  L 0 103  L 0 0  Z M 169 0  L 310 0  L 310 103  L 169 103  L 169 0  Z " fill-rule="nonzero" fill="#000000" stroke="none" transform="matrix(1 0 0 1 35 179 )" />
  </g>
</svg>