<?xml version="1.0" encoding="utf-8"?>
<svg version="1.1" xmlns:xlink="http://www.w3.org/1999/xlink" width="13px" height="13px" viewBox="645 95  13 13" xmlns="http://www.w3.org/2000/svg">
  <path d="M 651.5 95  C 655.14 95  658 97.86  658 101.5  C 658 105.14  655.14 108  651.5 108  C 647.86 108  645 105.14  645 101.5  C 645 97.86  647.86 95  651.5 95  Z " fill-rule="nonzero" fill="#ffffff" stroke="none" />
  <path d="M 651.5 95.5  C 654.86 95.5  657.5 98.14  657.5 101.5  C 657.5 104.86  654.86 107.5  651.5 107.5  C 648.14 107.5  645.5 104.86  645.5 101.5  C 645.5 98.14  648.14 95.5  651.5 95.5  Z " stroke-width="1" stroke="#797979" fill="none" />
  <path d="M 651.5 104.75  C 649.68 104.75  648.25 103.32  648.25 101.5  C 648.25 99.68  649.68 98.25  651.5 98.25  C 653.32 98.25  654.75 99.68  654.75 101.5  C 654.75 103.32  653.32 104.75  651.5 104.75  " fill-rule="nonzero" fill="#797979" stroke="none" />
</svg>