<?xml version="1.0" encoding="utf-8"?>
<svg version="1.1" xmlns:xlink="http://www.w3.org/1999/xlink" width="13px" height="13px" viewBox="569 95  13 13" xmlns="http://www.w3.org/2000/svg">
  <path d="M 575.5 95  C 579.14 95  582 97.86  582 101.5  C 582 105.14  579.14 108  575.5 108  C 571.86 108  569 105.14  569 101.5  C 569 97.86  571.86 95  575.5 95  Z " fill-rule="nonzero" fill="#f0f0f0" stroke="none" />
  <path d="M 575.5 95.5  C 578.86 95.5  581.5 98.14  581.5 101.5  C 581.5 104.86  578.86 107.5  575.5 107.5  C 572.14 107.5  569.5 104.86  569.5 101.5  C 569.5 98.14  572.14 95.5  575.5 95.5  Z " stroke-width="1" stroke="#797979" fill="none" />
  <path d="M 575.5 104.75  C 573.68 104.75  572.25 103.32  572.25 101.5  C 572.25 99.68  573.68 98.25  575.5 98.25  C 577.32 98.25  578.75 99.68  578.75 101.5  C 578.75 103.32  577.32 104.75  575.5 104.75  " fill-rule="nonzero" fill="#797979" stroke="none" />
</svg>